<?xml version="1.0" standalone="no"?>
<!DOCTYPE svg PUBLIC "-//W3C//DTD SVG 20010904//EN"
 "http://www.w3.org/TR/2001/REC-SVG-20010904/DTD/svg10.dtd">
<svg version="1.0" xmlns="http://www.w3.org/2000/svg"
 width="700.000000pt" height="700.000000pt" viewBox="0 0 700.000000 700.000000"
 preserveAspectRatio="xMidYMid meet">
<metadata>
Created by potrace 1.11, written by Peter Selinger 2001-2013
</metadata>
<g transform="translate(0.000000,700.000000) scale(0.100000,-0.100000)"
fill="#000000" stroke="none">
<path d="M4820 6819 c-190 -99 -406 -212 -480 -251 -74 -39 -182 -96 -240
-126 -58 -30 -141 -73 -185 -97 -44 -23 -134 -70 -200 -105 -66 -34 -160 -84
-210 -110 -106 -56 -250 -131 -430 -225 -143 -75 -464 -243 -590 -310 -44 -23
-154 -81 -245 -128 -91 -48 -219 -115 -285 -150 l-120 -63 0 -1753 0 -1753 40
-22 c22 -12 159 -84 305 -160 146 -76 297 -155 335 -176 117 -62 253 -133 400
-210 77 -40 163 -85 190 -100 28 -15 118 -62 200 -105 83 -43 191 -99 240
-125 50 -26 138 -73 198 -104 59 -31 153 -80 210 -110 56 -29 152 -79 212
-111 61 -32 155 -81 210 -110 335 -176 498 -262 638 -334 l157 -82 0 3501 c0
1925 -1 3500 -2 3500 -2 0 -158 -81 -348 -181z"/>
</g>
</svg>
