<svg xmlns="http://www.w3.org/2000/svg" xmlns:xlink="http://www.w3.org/1999/xlink" width="150" height="75" viewBox="0 0 150 75">
    <defs>
        <path id="wxtiykjija" d="M0 73.134L149.77 73.134 149.77 0.019 0 0.019z"/>
        <path id="xke75if3cc" d="M9.999 5.811L0.079 11.513 9.999 17.215 19.917 22.917 19.917 11.513 19.917 0.11z"/>
        <path id="3ylgzfo6hf" d="M0.079 11.571L0.079 22.976 9.999 17.273 19.919 11.571 9.999 5.87 0.079 0.167z"/>
        <path id="6k3snu3hki" d="M19.917 0.019L9.999 5.773 0.079 11.527 9.999 17.28 19.917 23.034 19.917 11.527z"/>
        <path id="modwz0vuml" d="M0.114 0.105L8.335 0.105 8.335 10.549 0.114 10.549z"/>
        <path id="ibcskmxhsn" d="M0.586 0.059L7.812 0.059 7.812 10.761 0.586 10.761z"/>
        <linearGradient id="ui54mpzyed" x1="83.064%" x2="40.808%" y1="88.537%" y2="7.331%">
            <stop offset="0%" stop-color="#00A8A5"/>
            <stop offset="100%" stop-color="#46AA34"/>
        </linearGradient>
        <linearGradient id="7otupov0yg" x1="18.235%" x2="48.016%" y1="79.349%" y2="28.397%">
            <stop offset="0%" stop-color="#46AA34"/>
            <stop offset="100%" stop-color="#00594D"/>
        </linearGradient>
        <linearGradient id="9l9cnid72j" x1="0%" x2="100.006%" y1="50%" y2="50%">
            <stop offset="0%" stop-color="#F9E242"/>
            <stop offset="100%" stop-color="#77B62A"/>
        </linearGradient>
    </defs>
    <g fill="none" fill-rule="evenodd">
        <g>
            <g>
                <g transform="translate(-150 -10) translate(150 10)">
                    <path fill="#1A181A" d="M7.632 50.244c1.063 0 2.127-.125 3.19-.375 1.064-.248 2.025-.673 2.882-1.27.857-.598 1.558-1.407 2.1-2.428.543-1.021.815-2.315.815-3.878 0-1.65-.272-2.998-.815-4.041-.542-1.042-1.243-1.857-2.1-2.443-.857-.586-1.818-.988-2.881-1.206-1.064-.216-2.128-.326-3.19-.326h-3.42v15.967h3.42zM.112 30.758h8.171c1.497 0 3.007.195 4.526.587 1.52.391 2.887 1.037 4.102 1.939 1.215.901 2.203 2.085 2.963 3.55.76 1.468 1.14 3.287 1.14 5.459 0 2.02-.38 3.76-1.14 5.213-.76 1.456-1.748 2.652-2.963 3.585-1.215.934-2.583 1.624-4.102 2.069-1.52.445-3.029.669-4.526.669H.111V30.758zM26.559 45.861c0 .61.092 1.217.276 1.825.184.608.461 1.152.83 1.629.369.478.836.869 1.4 1.174.564.304 1.238.455 2.019.455.781 0 1.455-.151 2.019-.455.564-.305 1.03-.696 1.4-1.174.37-.477.646-1.021.83-1.63.183-.607.277-1.215.277-1.824 0-.608-.094-1.21-.277-1.808-.184-.598-.46-1.135-.83-1.614-.37-.477-.836-.863-1.4-1.156-.564-.293-1.238-.44-2.02-.44-.78 0-1.454.147-2.018.44-.564.293-1.031.679-1.4 1.156-.369.479-.646 1.016-.83 1.614-.184.598-.276 1.2-.276 1.808m-3.973 0c0-1.238.223-2.362.667-3.373.445-1.01 1.047-1.873 1.808-2.59.758-.716 1.66-1.271 2.703-1.662 1.04-.39 2.148-.586 3.32-.586 1.172 0 2.28.195 3.32.586 1.043.39 1.943.946 2.704 1.663.76.716 1.362 1.579 1.807 2.59.445 1.01.667 2.134.667 3.372 0 1.239-.222 2.368-.667 3.388-.445 1.022-1.048 1.896-1.807 2.624-.76.728-1.66 1.299-2.703 1.71-1.041.413-2.15.62-3.321.62-1.172 0-2.28-.207-3.32-.62-1.043-.411-1.945-.982-2.703-1.71-.76-.728-1.363-1.602-1.808-2.624-.444-1.02-.667-2.15-.667-3.388M39.582 38.105L43.814 38.105 47.07 49.314 47.136 49.314 50.489 38.105 54.658 38.105 58.043 49.314 58.109 49.314 61.43 38.105 65.499 38.105 60.094 53.747 56.122 53.747 52.574 42.799 52.508 42.799 48.991 53.747 45.019 53.747zM66.924 38.105h3.711v2.51h.066c.347-.782.949-1.471 1.807-2.069.856-.597 1.871-.897 3.044-.897 1.02 0 1.893.18 2.62.538.728.36 1.324.83 1.792 1.419.466.586.808 1.26 1.025 2.019.217.76.326 1.543.326 2.347v9.775h-3.908v-8.668c0-.457-.032-.934-.097-1.434-.066-.499-.207-.95-.424-1.352-.216-.4-.515-.733-.894-.994-.38-.26-.885-.39-1.515-.39-.63 0-1.172.125-1.627.374-.457.25-.83.57-1.124.961-.294.391-.516.842-.668 1.352-.152.511-.228 1.026-.228 1.548v8.603h-3.906V38.105z"/>
                    <mask id="26syekqlmb" fill="#fff">
                        <use xlink:href="#wxtiykjija"/>
                    </mask>
                    <path fill="#1A181A" d="M84.149 53.747h3.907V38.106h-3.907v15.641zm-.554-20.952c0-.63.234-1.179.7-1.646.467-.466 1.059-.7 1.775-.7.717 0 1.318.222 1.808.668.486.445.732 1.004.732 1.678 0 .673-.246 1.233-.732 1.677-.49.446-1.091.669-1.808.669-.716 0-1.308-.234-1.775-.7-.466-.467-.7-1.017-.7-1.646zM91.124 38.105h3.711v2.51h.067c.346-.782.948-1.471 1.806-2.069.857-.597 1.872-.897 3.044-.897 1.02 0 1.893.18 2.62.538.728.36 1.325.83 1.792 1.419.466.586.808 1.26 1.025 2.019.217.76.326 1.543.326 2.347v9.775h-3.907v-8.668c0-.457-.032-.934-.098-1.434-.065-.499-.206-.95-.423-1.352-.217-.4-.516-.733-.895-.994-.38-.26-.885-.39-1.514-.39-.63 0-1.172.125-1.628.374-.456.25-.83.57-1.123.961-.294.391-.517.842-.668 1.352-.152.511-.229 1.026-.229 1.548v8.603h-3.906V38.105zM116.316 40.843c-.716 0-1.35.13-1.905.39-.553.26-1.02.612-1.4 1.055-.38.445-.673.97-.88 1.577-.205.606-.308 1.254-.308 1.947 0 .629.103 1.234.309 1.819.206.584.5 1.11.878 1.575.381.466.847.84 1.401 1.12.554.282 1.177.423 1.872.423.717 0 1.362-.135 1.938-.406.575-.27 1.063-.633 1.465-1.088.401-.454.71-.98.928-1.576.217-.595.326-1.217.326-1.867 0-.67-.11-1.31-.326-1.916-.217-.606-.527-1.137-.928-1.59-.402-.455-.885-.812-1.449-1.073-.565-.26-1.204-.39-1.92-.39zm8.336-2.738v14.24c0 1.413-.175 2.689-.521 3.83-.348 1.14-.885 2.106-1.613 2.9-.727.793-1.644 1.406-2.75 1.84-1.108.435-2.422.652-3.94.652-.63 0-1.297-.055-2.002-.163-.706-.108-1.4-.271-2.085-.488-.683-.218-1.34-.488-1.97-.815-.629-.326-1.193-.695-1.692-1.108l2.247-3.03c.76.716 1.616 1.265 2.57 1.645.956.38 1.922.57 2.899.57.934 0 1.72-.136 2.36-.408.641-.273 1.15-.649 1.531-1.129.38-.48.651-1.047.814-1.7.163-.655.244-1.374.244-2.159v-1.144h-.065c-.565.768-1.286 1.355-2.166 1.761-.879.405-1.86.61-2.946.61-1.172 0-2.235-.22-3.191-.653-.955-.434-1.764-1.021-2.425-1.76-.663-.738-1.178-1.602-1.547-2.59-.369-.988-.553-2.037-.553-3.145 0-1.13.18-2.194.537-3.193.358-1 .868-1.868 1.53-2.606.662-.74 1.465-1.325 2.41-1.76.944-.435 2.003-.652 3.174-.652 1.107 0 2.138.228 3.093.684.955.456 1.714 1.163 2.279 2.118h.066v-2.347h3.712z" mask="url(#26syekqlmb)"/>
                </g>
                <g transform="translate(-150 -10) translate(150 10) translate(129.85 22.388)">
                    <mask id="h0fooc7z9e" fill="#fff">
                        <use xlink:href="#xke75if3cc"/>
                    </mask>
                    <path fill="url(#ui54mpzyed)" d="M9.999 5.811L0.079 11.513 9.999 17.215 19.917 22.917 19.917 11.513 19.917 0.11z" mask="url(#h0fooc7z9e)"/>
                </g>
                <g>
                    <path fill="#29B19B" d="M19.918 16.075L19.918 18.356 17.935 17.214 15.95 16.075 17.935 14.934 19.918 13.794z" transform="translate(-150 -10) translate(150 10) translate(129.85 22.388)"/>
                    <path fill="#3BB08C" d="M19.918 11.513L19.918 13.794 17.935 12.654 15.95 11.513 17.935 10.373 19.918 9.232z" transform="translate(-150 -10) translate(150 10) translate(129.85 22.388)"/>
                    <path fill="#5EB576" d="M19.918 6.951L19.918 9.233 17.935 8.092 15.95 6.951 17.935 5.812 19.918 4.67z" transform="translate(-150 -10) translate(150 10) translate(129.85 22.388)"/>
                    <path fill="#6EB75E" d="M19.918 2.39L19.918 4.671 17.935 3.53 15.95 2.39 17.935 1.25 19.918 0.11z" transform="translate(-150 -10) translate(150 10) translate(129.85 22.388)"/>
                    <path fill="#20AF98" d="M15.951 18.355L15.951 20.637 13.966 19.495 11.982 18.355 13.966 17.215 15.951 16.074z" transform="translate(-150 -10) translate(150 10) translate(129.85 22.388)"/>
                    <path fill="#34B190" d="M15.951 13.794L15.951 16.075 13.966 14.933 11.982 13.794 13.966 12.654 15.951 11.513z" transform="translate(-150 -10) translate(150 10) translate(129.85 22.388)"/>
                    <path fill="#4CB27B" d="M15.951 9.232L15.951 11.513 13.966 10.373 11.982 9.232 13.966 8.093 15.951 6.951z" transform="translate(-150 -10) translate(150 10) translate(129.85 22.388)"/>
                    <path fill="#61B45A" d="M15.951 4.671L15.951 6.952 13.966 5.811 11.982 4.671 13.966 3.531 15.951 2.39z" transform="translate(-150 -10) translate(150 10) translate(129.85 22.388)"/>
                    <path fill="#72B96C" d="M15.951 4.671L15.951 2.39 17.934 3.531 19.918 4.671 17.934 5.811 15.951 6.952z" transform="translate(-150 -10) translate(150 10) translate(129.85 22.388)"/>
                    <path fill="#60B680" d="M15.951 9.232L15.951 6.951 17.934 8.093 19.918 9.232 17.934 10.373 15.951 11.513z" transform="translate(-150 -10) translate(150 10) translate(129.85 22.388)"/>
                    <path fill="#47B28A" d="M15.951 13.794L15.951 11.513 17.934 12.654 19.918 13.794 17.934 14.933 15.951 16.075z" transform="translate(-150 -10) translate(150 10) translate(129.85 22.388)"/>
                    <path fill="#3AB294" d="M15.951 18.355L15.951 16.074 17.934 17.215 19.918 18.355 17.934 19.495 15.951 20.637z" transform="translate(-150 -10) translate(150 10) translate(129.85 22.388)"/>
                    <path fill="#40B291" d="M11.982 16.075L11.982 18.356 9.999 17.214 8.014 16.075 9.999 14.934 11.982 13.794z" transform="translate(-150 -10) translate(150 10) translate(129.85 22.388)"/>
                    <path fill="#4FB37A" d="M11.982 11.513L11.982 13.794 9.999 12.654 8.014 11.513 9.999 10.373 11.982 9.232z" transform="translate(-150 -10) translate(150 10) translate(129.85 22.388)"/>
                    <path fill="#5FB364" d="M11.982 6.951L11.982 9.233 9.999 8.092 8.014 6.951 9.999 5.812 11.982 4.67z" transform="translate(-150 -10) translate(150 10) translate(129.85 22.388)"/>
                    <path fill="#6BB76C" d="M11.982 6.951L11.982 4.67 13.966 5.812 15.951 6.951 13.966 8.092 11.982 9.233z" transform="translate(-150 -10) translate(150 10) translate(129.85 22.388)"/>
                    <path fill="#5BB57E" d="M11.982 11.513L11.982 9.232 13.966 10.373 15.951 11.513 13.966 12.654 11.982 13.794z" transform="translate(-150 -10) translate(150 10) translate(129.85 22.388)"/>
                    <path fill="#4AB38D" d="M11.982 16.075L11.982 13.794 13.966 14.934 15.951 16.075 13.966 17.214 11.982 18.356z" transform="translate(-150 -10) translate(150 10) translate(129.85 22.388)"/>
                    <path fill="#51B276" d="M8.014 13.794L8.014 16.075 6.031 14.933 4.047 13.794 6.031 12.654 8.014 11.513z" transform="translate(-150 -10) translate(150 10) translate(129.85 22.388)"/>
                    <path fill="#57B165" d="M8.014 9.232L8.014 11.513 6.031 10.373 4.047 9.232 6.031 8.093 8.014 6.951z" transform="translate(-150 -10) translate(150 10) translate(129.85 22.388)"/>
                    <path fill="#69B773" d="M8.014 9.232L8.014 6.951 9.998 8.093 11.983 9.232 9.998 10.373 8.014 11.513z" transform="translate(-150 -10) translate(150 10) translate(129.85 22.388)"/>
                    <path fill="#5FB783" d="M8.014 13.794L8.014 11.513 9.998 12.654 11.983 13.794 9.998 14.933 8.014 16.075z" transform="translate(-150 -10) translate(150 10) translate(129.85 22.388)"/>
                    <path fill="#47AE61" d="M4.047 11.513L4.047 13.794 2.063 12.654 0.078 11.513 2.063 10.373 4.047 9.232z" transform="translate(-150 -10) translate(150 10) translate(129.85 22.388)"/>
                    <path fill="#62B56F" d="M4.047 11.513L4.047 9.232 6.03 10.373 8.014 11.513 6.03 12.654 4.047 13.794z" transform="translate(-150 -10) translate(150 10) translate(129.85 22.388)"/>
                    <path fill="#00ACA9" d="M19.918 20.636L19.918 22.917 17.935 21.776 15.95 20.636 17.935 19.496 19.918 18.355z" transform="translate(-150 -10) translate(150 10) translate(129.85 22.388)"/>
                </g>
                <g transform="translate(-150 -10) translate(150 10) translate(129.85 11.194)">
                    <mask id="m4dimm7l0h" fill="#fff">
                        <use xlink:href="#3ylgzfo6hf"/>
                    </mask>
                    <path fill="url(#7otupov0yg)" d="M0.079 11.571L0.079 22.976 9.999 17.273 19.919 11.571 9.999 5.87 0.079 0.167z" mask="url(#m4dimm7l0h)"/>
                </g>
                <g>
                    <path fill="#005A4D" d="M0.079 20.695L0.079 22.976 2.062 21.836 4.047 20.695 2.062 19.555 0.079 18.414z" transform="translate(-150 -10) translate(150 10) translate(129.85 11.194)"/>
                    <path fill="#0A664F" d="M0.079 16.133L0.079 18.414 2.062 17.274 4.047 16.133 2.062 14.994 0.079 13.852z" transform="translate(-150 -10) translate(150 10) translate(129.85 11.194)"/>
                    <path fill="#19824A" d="M0.079 11.573L0.079 13.853 2.062 12.712 4.047 11.573 2.062 10.432 0.079 9.292z" transform="translate(-150 -10) translate(150 10) translate(129.85 11.194)"/>
                    <path fill="#34973F" d="M0.079 7.011L0.079 9.292 2.062 8.151 4.047 7.011 2.062 5.871 0.079 4.73z" transform="translate(-150 -10) translate(150 10) translate(129.85 11.194)"/>
                    <path fill="#57AD32" d="M0.079 2.45L0.079 4.731 2.062 3.589 4.047 2.45 2.062 1.31 0.079 0.169z" transform="translate(-150 -10) translate(150 10) translate(129.85 11.194)"/>
                    <path fill="#0A664F" d="M4.047 18.414L4.047 20.695 6.03 19.555 8.014 18.414 6.03 17.275 4.047 16.133z" transform="translate(-150 -10) translate(150 10) translate(129.85 11.194)"/>
                    <path fill="#1A824A" d="M4.047 13.853L4.047 16.134 6.03 14.993 8.014 13.853 6.03 12.713 4.047 11.572z" transform="translate(-150 -10) translate(150 10) translate(129.85 11.194)"/>
                    <path fill="#34973F" d="M4.047 9.292L4.047 11.573 6.03 10.432 8.014 9.292 6.03 8.151 4.047 7.011z" transform="translate(-150 -10) translate(150 10) translate(129.85 11.194)"/>
                    <path fill="#57AD32" d="M4.047 4.73L4.047 7.011 6.03 5.87 8.014 4.73 6.03 3.59 4.047 2.449z" transform="translate(-150 -10) translate(150 10) translate(129.85 11.194)"/>
                    <path fill="#41A837" d="M4.047 4.73L4.047 2.449 2.063 3.59 0.078 4.73 2.063 5.87 4.047 7.011z" transform="translate(-150 -10) translate(150 10) translate(129.85 11.194)"/>
                    <path fill="#2C9042" d="M4.047 9.292L4.047 7.011 2.063 8.151 0.078 9.292 2.063 10.432 4.047 11.573z" transform="translate(-150 -10) translate(150 10) translate(129.85 11.194)"/>
                    <path fill="#0C7B4C" d="M4.047 13.853L4.047 11.572 2.063 12.713 0.078 13.853 2.063 14.993 4.047 16.134z" transform="translate(-150 -10) translate(150 10) translate(129.85 11.194)"/>
                    <path fill="#096B4E" d="M4.047 18.414L4.047 16.133 2.063 17.275 0.078 18.414 2.063 19.555 4.047 20.695z" transform="translate(-150 -10) translate(150 10) translate(129.85 11.194)"/>
                    <path fill="#1C824B" d="M8.014 16.133L8.014 18.414 9.998 17.274 11.983 16.133 9.998 14.994 8.014 13.852z" transform="translate(-150 -10) translate(150 10) translate(129.85 11.194)"/>
                    <path fill="#34973F" d="M8.014 11.573L8.014 13.853 9.998 12.712 11.983 11.573 9.998 10.432 8.014 9.292z" transform="translate(-150 -10) translate(150 10) translate(129.85 11.194)"/>
                    <path fill="#57AD32" d="M8.014 7.011L8.014 9.292 9.998 8.151 11.983 7.011 9.998 5.871 8.014 4.73z" transform="translate(-150 -10) translate(150 10) translate(129.85 11.194)"/>
                    <path fill="#41A837" d="M8.014 7.011L8.014 4.73 6.031 5.871 4.047 7.011 6.031 8.151 8.014 9.292z" transform="translate(-150 -10) translate(150 10) translate(129.85 11.194)"/>
                    <path fill="#2C9042" d="M8.014 11.573L8.014 9.292 6.031 10.432 4.047 11.573 6.031 12.712 8.014 13.853z" transform="translate(-150 -10) translate(150 10) translate(129.85 11.194)"/>
                    <path fill="#157F4D" d="M8.014 16.133L8.014 13.852 6.031 14.994 4.047 16.133 6.031 17.274 8.014 18.414z" transform="translate(-150 -10) translate(150 10) translate(129.85 11.194)"/>
                    <path fill="#34973F" d="M11.982 13.853L11.982 16.134 13.966 14.993 15.951 13.853 13.966 12.713 11.982 11.572z" transform="translate(-150 -10) translate(150 10) translate(129.85 11.194)"/>
                    <path fill="#47AB36" d="M11.982 9.292L11.982 11.573 13.966 10.432 15.951 9.292 13.966 8.151 11.982 7.011z" transform="translate(-150 -10) translate(150 10) translate(129.85 11.194)"/>
                    <path fill="#41A837" d="M11.982 9.292L11.982 7.011 9.999 8.151 8.014 9.292 9.999 10.432 11.982 11.573z" transform="translate(-150 -10) translate(150 10) translate(129.85 11.194)"/>
                    <path fill="#2C9042" d="M11.982 13.853L11.982 11.572 9.999 12.713 8.014 13.853 9.999 14.993 11.982 16.134z" transform="translate(-150 -10) translate(150 10) translate(129.85 11.194)"/>
                    <path fill="#3F9D36" d="M15.951 11.573L15.951 13.853 17.934 12.712 19.918 11.573 17.934 10.432 15.951 9.292z" transform="translate(-150 -10) translate(150 10) translate(129.85 11.194)"/>
                    <path fill="#42A436" d="M15.951 11.573L15.951 9.292 13.966 10.432 11.982 11.573 13.966 12.712 15.951 13.853z" transform="translate(-150 -10) translate(150 10) translate(129.85 11.194)"/>
                </g>
                <g transform="translate(-150 -10) translate(150 10) translate(129.85)">
                    <mask id="shfp181njk" fill="#fff">
                        <use xlink:href="#6k3snu3hki"/>
                    </mask>
                    <path fill="url(#9l9cnid72j)" d="M19.917 0.019L9.999 5.773 0.079 11.527 9.999 17.28 19.917 23.034 19.917 11.527z" mask="url(#shfp181njk)"/>
                </g>
                <g>
                    <path fill="#7CB83F" d="M149.768 20.626L149.768 22.916 147.781 21.77 145.792 20.626 147.781 19.481 149.768 18.336z" transform="translate(-150 -10) translate(150 10)"/>
                    <path fill="#7BB83B" d="M149.768 16.047L149.768 18.337 147.781 17.191 145.792 16.047 147.781 14.902 149.768 13.757z" transform="translate(-150 -10) translate(150 10)"/>
                    <path fill="#7BB838" d="M149.768 11.467L149.768 13.757 147.781 12.612 145.792 11.467 147.781 10.323 149.768 9.177z" transform="translate(-150 -10) translate(150 10)"/>
                    <path fill="#7DB830" d="M149.768 6.888L149.768 9.178 147.781 8.033 145.792 6.888 147.781 5.744 149.768 4.598z" transform="translate(-150 -10) translate(150 10)"/>
                    <path fill="#7FB92E" d="M149.768 2.308L149.768 4.598 147.781 3.453 145.792 2.308 147.781 1.164 149.768 0.019z" transform="translate(-150 -10) translate(150 10)"/>
                    <path fill="#92BE30" d="M145.792 18.337L145.792 20.627 143.804 19.481 141.815 18.337 143.804 17.192 145.792 16.047z" transform="translate(-150 -10) translate(150 10)"/>
                    <path fill="#96BE31" d="M145.792 13.757L145.792 16.047 143.804 14.901 141.815 13.757 143.804 12.613 145.792 11.467z" transform="translate(-150 -10) translate(150 10)"/>
                    <path fill="#92BE30" d="M145.792 9.178L145.792 11.468 143.804 10.323 141.815 9.178 143.804 8.034 145.792 6.888z" transform="translate(-150 -10) translate(150 10)"/>
                    <path fill="#A0C22D" d="M145.792 4.598L145.792 6.888 143.804 5.743 141.815 4.598 143.804 3.454 145.792 2.308z" transform="translate(-150 -10) translate(150 10)"/>
                    <path fill="#8BBD37" d="M145.792 4.598L145.792 2.308 147.78 3.454 149.768 4.598 147.78 5.743 145.792 6.888z" transform="translate(-150 -10) translate(150 10)"/>
                    <path fill="#8CBC31" d="M145.792 9.178L145.792 6.888 147.78 8.034 149.768 9.178 147.78 10.323 145.792 11.468z" transform="translate(-150 -10) translate(150 10)"/>
                    <path fill="#87BA31" d="M145.792 13.757L145.792 11.467 147.78 12.613 149.768 13.757 147.78 14.901 145.792 16.047z" transform="translate(-150 -10) translate(150 10)"/>
                    <path fill="#8ABC3D" d="M145.792 18.337L145.792 16.047 147.78 17.192 149.768 18.337 147.78 19.481 145.792 20.627z" transform="translate(-150 -10) translate(150 10)"/>
                    <path fill="#B1C837" d="M141.816 16.047L141.816 18.337 139.828 17.191 137.839 16.047 139.828 14.902 141.816 13.757z" transform="translate(-150 -10) translate(150 10)"/>
                    <path fill="#BCCB35" d="M141.816 11.467L141.816 13.757 139.828 12.612 137.839 11.467 139.828 10.323 141.816 9.177z" transform="translate(-150 -10) translate(150 10)"/>
                    <path fill="#B3C937" d="M141.816 6.888L141.816 9.178 139.828 8.033 137.839 6.888 139.828 5.744 141.816 4.598z" transform="translate(-150 -10) translate(150 10)"/>
                    <path fill="#A0C335" d="M141.816 6.888L141.816 4.598 143.803 5.744 145.793 6.888 143.803 8.033 141.816 9.178z" transform="translate(-150 -10) translate(150 10)"/>
                    <path fill="#A5C335" d="M141.816 11.467L141.816 9.177 143.803 10.323 145.793 11.467 143.803 12.612 141.816 13.757z" transform="translate(-150 -10) translate(150 10)"/>
                    <path fill="#A7C435" d="M141.816 16.047L141.816 13.757 143.803 14.902 145.793 16.047 143.803 17.191 141.816 18.337z" transform="translate(-150 -10) translate(150 10)"/>
                    <path fill="#D5D230" d="M137.839 13.757L137.839 16.047 135.851 14.901 133.863 13.757 135.851 12.613 137.839 11.467z" transform="translate(-150 -10) translate(150 10)"/>
                    <path fill="#D6D230" d="M137.839 9.178L137.839 11.468 135.851 10.323 133.863 9.178 135.851 8.034 137.839 6.888z" transform="translate(-150 -10) translate(150 10)"/>
                    <path fill="#C7CF36" d="M137.839 9.178L137.839 6.888 139.827 8.034 141.816 9.178 139.827 10.323 137.839 11.468z" transform="translate(-150 -10) translate(150 10)"/>
                    <path fill="#CCD13A" d="M137.839 13.757L137.839 11.467 139.827 12.613 141.816 13.757 139.827 14.901 137.839 16.047z" transform="translate(-150 -10) translate(150 10)"/>
                    <path fill="#F2E141" d="M133.863 11.467L133.863 13.757 131.875 12.612 129.886 11.467 131.875 10.323 133.863 9.177z" transform="translate(-150 -10) translate(150 10)"/>
                    <path fill="#DAD53B" d="M133.863 11.467L133.863 9.177 135.851 10.323 137.839 11.467 135.851 12.612 133.863 13.757z" transform="translate(-150 -10) translate(150 10)"/>
                    <path fill="#565A5C" d="M0 62.438L2.033 62.438 4.846 70.279 4.905 70.279 7.745 62.438 9.707 62.438 5.611 72.623 4.038 72.623zM11.047 62.438L17.812 62.438 17.812 64.021 12.866 64.021 12.866 66.611 17.553 66.611 17.553 68.135 12.866 68.135 12.866 71.012 18.072 71.012 18.072 72.623 11.047 72.623zM20.206 62.438L22.615 62.438 27.359 70.062 27.39 70.062 27.39 62.438 29.205 62.438 29.205 72.623 26.899 72.623 22.052 64.754 22.025 64.754 22.025 72.623 20.206 72.623zM33.879 64.021L30.749 64.021 30.749 62.439 38.827 62.439 38.827 64.021 35.697 64.021 35.697 72.623 33.879 72.623z" transform="translate(-150 -10) translate(150 10)"/>
                    <g transform="translate(-150 -10) translate(150 10) translate(40.17 62.333)">
                        <mask id="zjurx1z5sm" fill="#fff">
                            <use xlink:href="#modwz0vuml"/>
                        </mask>
                        <path fill="#565A5C" d="M8.335 6.55c0 .614-.105 1.167-.318 1.66-.211.495-.5.915-.865 1.26-.364.344-.799.612-1.298.798-.5.187-1.043.28-1.63.28-.586 0-1.13-.093-1.63-.28-.5-.186-.934-.454-1.304-.798-.372-.345-.66-.765-.867-1.26-.206-.493-.31-1.046-.31-1.66V.105h1.818v6.373c0 .296.038.592.115.884.077.293.204.554.382.785.179.229.414.417.708.56.292.143.656.216 1.088.216.434 0 .796-.073 1.089-.215.293-.144.529-.332.707-.561.177-.23.305-.492.382-.785.077-.292.115-.588.115-.884V.105h1.818V6.55z" mask="url(#zjurx1z5sm)"/>
                    </g>
                    <path fill="#565A5C" d="M54.332 66.826c.26 0 .518-.02.778-.058.26-.038.493-.11.7-.215.206-.106.377-.257.511-.454.135-.196.202-.448.202-.755 0-.278-.062-.505-.188-.683-.124-.177-.283-.319-.475-.424-.193-.106-.411-.178-.656-.216-.245-.038-.484-.057-.715-.057h-1.643v2.862h1.486zm-3.304-4.387h3.548c.48 0 .947.05 1.399.151.453.1.854.266 1.205.497.35.229.631.531.844.905.211.375.317.83.317 1.367 0 .738-.21 1.34-.627 1.805-.419.466-.988.78-1.71.942l2.726 4.517h-2.192l-2.366-4.315h-1.326v4.315h-1.818V62.439zM60.461 62.438L67.226 62.438 67.226 64.021 62.279 64.021 62.279 66.611 66.966 66.611 66.966 68.135 62.279 68.135 62.279 71.012 67.485 71.012 67.485 72.623 60.461 72.623z" transform="translate(-150 -10) translate(150 10)"/>
                    <g transform="translate(-150 -10) translate(150 10) translate(68.27 62.12)">
                        <mask id="4qieproe8o" fill="#fff">
                            <use xlink:href="#ibcskmxhsn"/>
                        </mask>
                        <path fill="#565A5C" d="M6.557 2.447c-.192-.25-.463-.458-.815-.626-.351-.168-.704-.251-1.06-.251-.212 0-.424.026-.634.078-.212.054-.403.136-.578.245-.174.11-.314.255-.425.431-.111.179-.166.39-.166.641 0 .23.048.426.144.589.097.164.228.303.397.418.168.115.373.215.613.301.24.087.505.174.793.26.327.105.667.225 1.018.36.35.133.672.311.966.53.292.222.533.5.721.836.187.336.28.753.28 1.25 0 .548-.1 1.026-.302 1.432-.202.408-.471.746-.808 1.015-.336.268-.73.469-1.182.604-.453.134-.928.202-1.427.202-.665 0-1.314-.123-1.948-.368C1.509 10.15.99 9.788.586 9.308L1.885 8.1c.249.346.584.619 1.002.82.417.202.829.301 1.233.301.212 0 .427-.025.65-.078.22-.052.419-.141.598-.266.177-.125.322-.28.432-.468.11-.187.166-.419.166-.698 0-.268-.063-.49-.189-.668-.123-.178-.292-.331-.504-.46-.211-.13-.46-.242-.75-.338-.288-.097-.591-.197-.91-.302-.306-.096-.614-.211-.921-.347-.308-.133-.584-.31-.83-.532-.245-.22-.445-.49-.598-.812-.154-.321-.231-.721-.231-1.2 0-.518.108-.964.325-1.34.215-.372.499-.682.85-.926.35-.245.75-.427 1.198-.547.446-.12.901-.18 1.364-.18.518 0 1.045.09 1.578.274.534.18.997.455 1.392.819L6.557 2.447z" mask="url(#4qieproe8o)"/>
                    </g>
                </g>
            </g>
        </g>
    </g>
</svg>
