<svg xmlns="http://www.w3.org/2000/svg" xmlns:xlink="http://www.w3.org/1999/xlink" width="677" height="267" viewBox="0 0 677 267">
    <defs>
        <linearGradient id="fsola9jehb" x1="0%" x2="100%" y1="50%" y2="50%">
            <stop offset="0%" stop-color="#11664D"/>
            <stop offset="100%" stop-color="#79B35E"/>
        </linearGradient>
        <linearGradient id="e69fnn3qne" x1="0%" x2="100%" y1="50%" y2="50%">
            <stop offset="0%" stop-color="#2A8936"/>
            <stop offset="100%" stop-color="#0B594D"/>
        </linearGradient>
        <linearGradient id="bydyxwmo3h" x1="0%" x2="100%" y1="50%" y2="50%">
            <stop offset="0%" stop-color="#00A7A8"/>
            <stop offset="100%" stop-color="#99BA1F"/>
        </linearGradient>
        <linearGradient id="vq9th0oblk" x1="0%" x2="100%" y1="50%" y2="50%">
            <stop offset="0%" stop-color="#F4DF2D"/>
            <stop offset="100%" stop-color="#44AC89"/>
        </linearGradient>
        <path id="ehn0gxzj6a" d="M22.438 13.98L.485 13.014C51.032 78.226 127.11 134.748 206.861 134.748c88.835 0 138.991-55.589 143.732-126.555L333.081 19.79l-15.56-11.597c-.125-.064-.245-.026-.36.012-.125.042-.243.083-.356-.012-4.516 63.178-53.548 98.033-109.944 98.033-73.42 0-131.856-44.918-177.48-105.524-1.528 2.015-5.453 11.243-6.943 13.278"/>
        <path id="r2swvg4fbd" d="M140.876.799C44.916.799 5.13 60.749.39 131.713l16.012-11.633 16.128 11.633h.086c.024.002.05.002.075 0C37.284 68.641 78.603 27.857 140.876 27.857c72.894 0 138.562 59.012 184.155 119.037 2.313 0 20.297-3.157 20.297-3.157l1.355-18.519C296.046 60.008 242.511.798 140.876.798z"/>
        <path id="hjog2ajd7g" d="M206.861.799C122.731.799 51.76 55.127.488 125.134l12.93 11.659 20.592-5.42c45.913-62.69 97.514-103.516 172.851-103.516 58.891 0 110.618 34.836 110.618 106.352l15.888 10.476 17.63-11.724C350.592 63.887 300.686.799 206.86.799z"/>
        <path id="8854jkuwlj" d="M0 13.184c0 73.16 53.65 126.554 140.876 126.554 84.133 0 165.002-62.113 216.273-132.121l-20.325 4.968L323.625 1.38c-45.911 62.689-107.41 109.838-182.749 109.838-53.54 0-108.608-29.01-108.608-98.033L16.381.841 0 13.184z"/>
    </defs>
    <g fill="none" fill-rule="evenodd">
        <g>
            <g>
                <g transform="translate(-378 -1653) translate(378 1653) translate(324.393 131.454)">
                    <mask id="bho7qd8guc" fill="#fff">
                        <use xlink:href="#ehn0gxzj6a"/>
                    </mask>
                    <path fill="url(#fsola9jehb)" d="M22.438 13.98L.485 13.014C51.032 78.226 127.11 134.748 206.861 134.748c88.835 0 138.991-55.589 143.732-126.555L333.081 19.79l-15.56-11.597c-.125-.064-.245-.026-.36.012-.125.042-.243.083-.356-.012-4.516 63.178-53.548 98.033-109.944 98.033-73.42 0-131.856-44.918-177.48-105.524-1.528 2.015-5.453 11.243-6.943 13.278" mask="url(#bho7qd8guc)"/>
                </g>
                <g transform="translate(-378 -1653) translate(378 1653) translate(0 .45)">
                    <mask id="09qnmyxl1f" fill="#fff">
                        <use xlink:href="#r2swvg4fbd"/>
                    </mask>
                    <path fill="url(#e69fnn3qne)" d="M140.876.799C44.916.799 5.13 60.749.39 131.713l16.012-11.633 16.128 11.633h.086c.024.002.05.002.075 0C37.284 68.641 78.603 27.857 140.876 27.857c72.894 0 138.562 59.012 184.155 119.037 2.313 0 20.297-3.157 20.297-3.157l1.355-18.519C296.046 60.008 242.511.798 140.876.798z" mask="url(#09qnmyxl1f)"/>
                </g>
                <g transform="translate(-378 -1653) translate(378 1653) translate(324.393 .45)">
                    <mask id="8mvyne2nyi" fill="#fff">
                        <use xlink:href="#hjog2ajd7g"/>
                    </mask>
                    <path fill="url(#bydyxwmo3h)" d="M206.861.799C122.731.799 51.76 55.127.488 125.134l12.93 11.659 20.592-5.42c45.913-62.69 97.514-103.516 172.851-103.516 58.891 0 110.618 34.836 110.618 106.352l15.888 10.476 17.63-11.724C350.592 63.887 300.686.799 206.86.799z" mask="url(#8mvyne2nyi)"/>
                </g>
                <g transform="translate(-378 -1653) translate(378 1653) translate(0 126.463)">
                    <mask id="8dwphev69l" fill="#fff">
                        <use xlink:href="#8854jkuwlj"/>
                    </mask>
                    <path fill="url(#vq9th0oblk)" d="M0 13.184c0 73.16 53.65 126.554 140.876 126.554 84.133 0 165.002-62.113 216.273-132.121l-20.325 4.968L323.625 1.38c-45.911 62.689-107.41 109.838-182.749 109.838-53.54 0-108.608-29.01-108.608-98.033L16.381.841 0 13.184z" mask="url(#8dwphev69l)"/>
                </g>
            </g>
        </g>
    </g>
</svg>
