<?xml version="1.0" encoding="UTF-8" standalone="no"?>
<!DOCTYPE svg PUBLIC "-//W3C//DTD SVG 1.1//EN" "http://www.w3.org/Graphics/SVG/1.1/DTD/svg11.dtd">
<svg width="100%" height="100%" viewBox="0 0 44 44" version="1.1" xmlns="http://www.w3.org/2000/svg" xmlns:xlink="http://www.w3.org/1999/xlink" xml:space="preserve" xmlns:serif="http://www.serif.com/" style="fill-rule:evenodd;clip-rule:evenodd;stroke-linejoin:round;stroke-miterlimit:2;">
    <path d="M22,0C9.852,0 0,9.852 0,22C0,34.148 9.852,44 22,44C34.148,44 44,34.148 44,22C44,9.852 34.148,0 22,0ZM15.607,33.258L10.249,33.258L10.249,17.138L15.607,17.138L15.607,33.258ZM12.928,14.937L12.893,14.937C11.095,14.937 9.932,13.699 9.932,12.152C9.932,10.571 11.131,9.367 12.964,9.367C14.797,9.367 15.925,10.571 15.96,12.152C15.96,13.699 14.797,14.937 12.928,14.937ZM34.927,33.258L29.57,33.258L29.57,24.634C29.57,22.467 28.794,20.989 26.855,20.989C25.375,20.989 24.494,21.986 24.106,22.948C23.964,23.293 23.93,23.774 23.93,24.256L23.93,33.258L18.572,33.258C18.572,33.258 18.642,18.65 18.572,17.138L23.93,17.138L23.93,19.421C24.642,18.322 25.916,16.76 28.759,16.76C32.284,16.76 34.927,19.064 34.927,24.015L34.927,33.258Z" style="fill:#565a5c;fill-rule:nonzero;"/>
</svg>
