<?xml version="1.0" encoding="UTF-8" standalone="no"?>
<!DOCTYPE svg PUBLIC "-//W3C//DTD SVG 1.1//EN" "http://www.w3.org/Graphics/SVG/1.1/DTD/svg11.dtd">
<svg width="150" height="62" viewBox="0 0 150 62" version="1.1" xmlns="http://www.w3.org/2000/svg" xmlns:xlink="http://www.w3.org/1999/xlink" xml:space="preserve" xmlns:serif="http://www.serif.com/" style="fill-rule:evenodd;clip-rule:evenodd;stroke-linejoin:round;stroke-miterlimit:2;">
    <path d="M0,30.633L8.182,30.633C9.712,30.636 11.235,30.832 12.715,31.216C14.197,31.583 15.593,32.236 16.822,33.14C18.071,34.072 19.086,35.28 19.79,36.667C20.55,38.124 20.93,39.941 20.93,42.117C20.977,43.915 20.586,45.699 19.79,47.314C19.075,48.706 18.062,49.926 16.822,50.884C15.594,51.822 14.201,52.521 12.715,52.946C11.243,53.382 9.717,53.607 8.182,53.613L0,53.613L0,30.633ZM7.532,50.048C8.607,50.053 9.678,49.934 10.725,49.692C11.763,49.458 12.747,49.028 13.622,48.426C14.507,47.798 15.228,46.968 15.724,46.006C16.306,44.808 16.586,43.488 16.539,42.158C16.539,40.513 16.267,39.17 15.724,38.132C15.237,37.159 14.514,36.322 13.622,35.695C12.748,35.105 11.762,34.697 10.725,34.496C9.675,34.282 8.605,34.174 7.532,34.176L4.107,34.176L4.107,50.086L7.532,50.048ZM22.506,45.682C22.491,44.526 22.719,43.381 23.176,42.319C23.6,41.352 24.216,40.479 24.985,39.754C25.763,39.024 26.68,38.456 27.682,38.084C29.83,37.306 32.185,37.306 34.332,38.084C35.337,38.451 36.257,39.014 37.04,39.741C37.81,40.466 38.426,41.338 38.849,42.306C39.305,43.366 39.533,44.511 39.519,45.666C39.536,46.828 39.309,47.981 38.855,49.051C38.435,50.035 37.819,50.925 37.046,51.667C36.263,52.404 35.344,52.984 34.339,53.373C32.199,54.193 29.829,54.193 27.689,53.373C26.684,52.983 25.765,52.404 24.982,51.667C24.211,50.924 23.597,50.034 23.176,49.051C22.721,47.986 22.493,46.839 22.506,45.681L22.506,45.682ZM26.482,45.682C26.484,46.298 26.577,46.91 26.759,47.499C26.935,48.087 27.218,48.638 27.592,49.125C27.97,49.609 28.447,50.007 28.992,50.292C30.272,50.899 31.757,50.899 33.035,50.292C33.581,50.006 34.059,49.609 34.439,49.125C34.811,48.637 35.092,48.086 35.269,47.499C35.451,46.91 35.544,46.298 35.546,45.682C35.545,45.071 35.451,44.463 35.269,43.88C35.09,43.3 34.809,42.758 34.439,42.277C34.062,41.794 33.583,41.4 33.035,41.123C31.752,40.537 30.276,40.537 28.992,41.123C28.445,41.399 27.967,41.793 27.592,42.277C27.22,42.757 26.937,43.3 26.759,43.88C26.576,44.463 26.483,45.07 26.482,45.682ZM39.525,37.955L43.777,37.955L47.038,49.125L47.102,49.125L50.462,37.955L54.647,37.955L58.036,49.125L58.104,49.125L61.429,37.955L65.504,37.955L60.064,53.539L56.086,53.539L52.545,42.639L52.468,42.639L48.946,53.539L44.968,53.539L39.525,37.955ZM66.901,37.955L70.619,37.955L70.619,40.453L70.683,40.453C71.083,39.613 71.71,38.899 72.493,38.391C73.391,37.786 74.456,37.474 75.541,37.501C76.445,37.474 77.343,37.658 78.164,38.035C78.861,38.367 79.474,38.85 79.957,39.449C80.431,40.044 80.78,40.728 80.984,41.459C81.201,42.221 81.309,43.009 81.306,43.799L81.306,53.539L77.398,53.539L77.398,44.903C77.397,44.424 77.364,43.947 77.302,43.473C77.245,43.002 77.102,42.545 76.877,42.126C76.663,41.729 76.357,41.389 75.982,41.136C75.527,40.857 74.999,40.722 74.466,40.748C73.899,40.733 73.338,40.861 72.834,41.12C72.394,41.356 72.011,41.684 71.71,42.081C71.408,42.487 71.182,42.943 71.04,43.428C70.89,43.928 70.813,44.448 70.812,44.97L70.812,53.54L66.902,53.54L66.902,37.954L66.901,37.955ZM83.594,32.662C83.591,32.042 83.844,31.448 84.296,31.021C84.766,30.554 85.409,30.301 86.073,30.321C86.737,30.306 87.383,30.544 87.876,30.989C88.344,31.419 88.61,32.026 88.61,32.661C88.61,33.296 88.344,33.901 87.876,34.333C87.382,34.78 86.733,35.019 86.066,34.999C85.403,35.02 84.76,34.768 84.29,34.301C83.841,33.873 83.59,33.281 83.594,32.662ZM84.148,37.955L88.062,37.955L88.062,53.54L84.148,53.54L84.148,37.955ZM91.133,37.955L94.851,37.955L94.851,40.453L94.915,40.453C95.315,39.613 95.942,38.899 96.725,38.391C97.627,37.787 98.698,37.478 99.785,37.51C100.69,37.484 101.588,37.667 102.409,38.045C103.105,38.377 103.718,38.86 104.202,39.459C104.677,40.053 105.026,40.737 105.229,41.469C105.445,42.23 105.554,43.019 105.551,43.809L105.551,53.539L101.63,53.539L101.63,44.903C101.628,44.424 101.596,43.947 101.533,43.473C101.477,43.002 101.333,42.545 101.108,42.126C100.895,41.729 100.588,41.389 100.214,41.136C99.759,40.856 99.231,40.721 98.697,40.748C98.131,40.733 97.569,40.861 97.065,41.12C96.626,41.356 96.243,41.684 95.942,42.081C95.642,42.488 95.415,42.943 95.272,43.428C95.123,43.928 95.047,44.448 95.047,44.97L95.047,53.54L91.133,53.54L91.133,37.954L91.133,37.955ZM124.706,37.955L124.706,52.145C124.722,53.435 124.546,54.721 124.185,55.96C123.872,57.03 123.322,58.016 122.575,58.845C121.812,59.661 120.868,60.289 119.82,60.679C118.557,61.136 117.22,61.353 115.877,61.32C115.205,61.317 114.535,61.262 113.871,61.157C113.164,61.051 112.466,60.887 111.785,60.67C111.105,60.457 110.445,60.186 109.812,59.858C109.209,59.552 108.64,59.183 108.116,58.756L110.369,55.736C111.115,56.44 111.989,56.996 112.944,57.374C113.864,57.747 114.848,57.941 115.841,57.944C116.648,57.966 117.451,57.828 118.204,57.537C118.803,57.301 119.332,56.919 119.742,56.425C120.134,55.925 120.412,55.346 120.557,54.729C120.727,54.025 120.809,53.302 120.802,52.578L120.802,51.44L120.737,51.44C120.177,52.2 119.43,52.803 118.567,53.193C117.641,53.607 116.635,53.813 115.619,53.799C114.519,53.817 113.429,53.599 112.423,53.158C111.5,52.748 110.673,52.151 109.996,51.404C109.322,50.654 108.796,49.784 108.444,48.84C108.073,47.836 107.885,46.774 107.891,45.704C107.884,44.621 108.066,43.545 108.428,42.524C108.766,41.567 109.286,40.684 109.96,39.924C110.635,39.18 111.457,38.583 112.374,38.17C113.375,37.729 114.46,37.51 115.554,37.529C116.625,37.521 117.684,37.754 118.651,38.209C119.609,38.667 120.405,39.403 120.933,40.321L120.998,40.321L120.998,37.984L124.706,37.955ZM116.359,40.68C115.702,40.668 115.049,40.802 114.451,41.072C113.913,41.317 113.435,41.676 113.051,42.123C112.657,42.584 112.358,43.116 112.168,43.691C111.955,44.316 111.846,44.973 111.847,45.634C111.849,46.251 111.958,46.864 112.168,47.445C112.368,48.016 112.666,48.548 113.05,49.015C113.432,49.482 113.91,49.863 114.45,50.132C115.033,50.419 115.677,50.563 116.327,50.552C117.632,50.575 118.88,50.026 119.742,49.052C120.15,48.591 120.465,48.058 120.672,47.48C120.888,46.884 120.997,46.255 120.995,45.62C121,44.966 120.891,44.315 120.673,43.697C120.467,43.115 120.151,42.577 119.743,42.113C119.341,41.658 118.846,41.294 118.291,41.046C117.681,40.785 117.022,40.66 116.359,40.68Z" style="fill:#fff;fill-rule:nonzero;"/>
    <path d="M149.855,22.897L149.855,45.791L139.902,40.068L129.946,34.342L139.902,28.62L149.855,22.897Z" style="fill:url(#_Linear1);fill-rule:nonzero;"/>
    <path d="M149.855,36.634L149.855,41.213L147.866,40.068L145.873,38.924L147.866,37.779L149.855,36.634Z" style="fill:#29b19b;fill-rule:nonzero;"/>
    <path d="M149.855,32.053L149.855,36.634L147.866,35.487L145.873,34.342L147.866,33.198L149.855,32.053Z" style="fill:#3bb08c;fill-rule:nonzero;"/>
    <path d="M149.855,27.475L149.855,32.053L147.866,30.909L145.873,29.764L147.866,28.62L149.855,27.475Z" style="fill:#5eb576;fill-rule:nonzero;"/>
    <path d="M149.855,22.897L149.855,27.475L147.866,26.331L145.873,25.186L147.866,24.041L149.855,22.897Z" style="fill:#6eb75e;fill-rule:nonzero;"/>
    <path d="M145.873,38.924L145.873,43.502L143.884,42.357L141.892,41.213L143.884,40.068L145.873,38.924Z" style="fill:#20af98;fill-rule:nonzero;"/>
    <path d="M145.873,34.342L145.873,38.924L143.884,37.779L141.892,36.634L143.884,35.487L145.873,34.342Z" style="fill:#34b190;fill-rule:nonzero;"/>
    <path d="M145.873,29.764L145.873,34.342L143.884,33.198L141.892,32.053L143.884,30.909L145.873,29.764Z" style="fill:#4cb27b;fill-rule:nonzero;"/>
    <path d="M145.873,25.186L145.873,29.764L143.884,28.62L141.892,27.475L143.884,26.331L145.873,25.186Z" style="fill:#61b45a;fill-rule:nonzero;"/>
    <path d="M145.873,29.764L145.873,25.186L147.866,26.331L149.855,27.475L147.866,28.62L145.873,29.764Z" style="fill:#72b96c;fill-rule:nonzero;"/>
    <path d="M145.873,34.342L145.873,29.764L147.866,30.909L149.855,32.053L147.866,33.198L145.873,34.342Z" style="fill:#60b680;fill-rule:nonzero;"/>
    <path d="M145.873,38.924L145.873,34.342L147.866,35.487L149.855,36.634L147.866,37.779L145.873,38.924Z" style="fill:#47b28a;fill-rule:nonzero;"/>
    <path d="M145.873,43.502L145.873,38.924L147.866,40.068L149.855,41.213L147.866,42.357L145.873,43.502Z" style="fill:#3ab294;fill-rule:nonzero;"/>
    <path d="M141.892,36.634L141.892,41.213L139.902,40.068L137.91,38.924L139.902,37.779L141.892,36.634Z" style="fill:#40b291;fill-rule:nonzero;"/>
    <path d="M141.892,32.053L141.892,36.634L139.902,35.487L137.91,34.342L139.902,33.198L141.892,32.053Z" style="fill:#4fb37a;fill-rule:nonzero;"/>
    <path d="M141.892,27.475L141.892,32.053L139.902,30.909L137.91,29.764L139.902,28.62L141.892,27.475Z" style="fill:#5fb364;fill-rule:nonzero;"/>
    <path d="M141.892,32.053L141.892,27.475L143.884,28.62L145.873,29.764L143.884,30.909L141.892,32.053Z" style="fill:#6bb76c;fill-rule:nonzero;"/>
    <path d="M141.892,36.634L141.892,32.053L143.884,33.198L145.873,34.342L143.884,35.487L141.892,36.634Z" style="fill:#5bb57e;fill-rule:nonzero;"/>
    <path d="M141.892,41.213L141.892,36.634L143.884,37.779L145.873,38.924L143.884,40.068L141.892,41.213Z" style="fill:#4ab38d;fill-rule:nonzero;"/>
    <path d="M137.91,34.342L137.91,38.924L135.921,37.779L133.928,36.634L135.921,35.487L137.91,34.342Z" style="fill:#51b276;fill-rule:nonzero;"/>
    <path d="M137.91,29.764L137.91,34.342L135.921,33.198L133.928,32.053L135.921,30.909L137.91,29.764Z" style="fill:#57b165;fill-rule:nonzero;"/>
    <path d="M137.91,34.342L137.91,29.764L139.902,30.909L141.892,32.053L139.902,33.198L137.91,34.342Z" style="fill:#69b773;fill-rule:nonzero;"/>
    <path d="M137.91,38.924L137.91,34.342L139.902,35.487L141.892,36.634L139.902,37.779L137.91,38.924Z" style="fill:#5fb783;fill-rule:nonzero;"/>
    <path d="M133.928,32.053L133.928,36.634L131.939,35.487L129.946,34.342L131.939,33.198L133.928,32.053Z" style="fill:#47ae61;fill-rule:nonzero;"/>
    <path d="M133.928,36.634L133.928,32.053L135.921,33.198L137.91,34.342L135.921,35.487L133.928,36.634Z" style="fill:#62b56f;fill-rule:nonzero;"/>
    <path d="M149.855,41.213L149.855,45.791L147.866,44.646L145.873,43.502L147.866,42.357L149.855,41.213Z" style="fill:#00aca9;fill-rule:nonzero;"/>
    <path d="M129.946,11.445L129.946,34.342L139.902,28.62L149.855,22.894L139.902,17.171L129.946,11.445Z" style="fill:url(#_Linear2);fill-rule:nonzero;"/>
    <path d="M129.946,29.764L129.946,34.342L131.939,33.198L133.928,32.053L131.939,30.909L129.946,29.764Z" style="fill:#005a4d;fill-rule:nonzero;"/>
    <path d="M129.946,25.186L129.946,29.764L131.939,28.62L133.928,27.475L131.939,26.331L129.946,25.186Z" style="fill:#0a664f;fill-rule:nonzero;"/>
    <path d="M129.946,20.605L129.946,25.186L131.939,24.041L133.928,22.897L131.939,21.749L129.946,20.605Z" style="fill:#19824a;fill-rule:nonzero;"/>
    <path d="M129.946,16.027L129.946,20.605L131.939,19.46L133.928,18.316L131.939,17.171L129.946,16.027Z" style="fill:#34973f;fill-rule:nonzero;"/>
    <path d="M129.946,11.448L129.946,16.027L131.939,14.882L133.928,13.738L131.939,12.593L129.946,11.448Z" style="fill:#57ad32;fill-rule:nonzero;"/>
    <path d="M133.928,27.475L133.928,32.053L135.921,30.909L137.91,29.764L135.921,28.62L133.928,27.475Z" style="fill:#0a664f;fill-rule:nonzero;"/>
    <path d="M133.928,22.897L133.928,27.475L135.921,26.331L137.91,25.186L135.921,24.041L133.928,22.897Z" style="fill:#1a824a;fill-rule:nonzero;"/>
    <path d="M133.928,18.316L133.928,22.897L135.921,21.749L137.91,20.605L135.921,19.46L133.928,18.316Z" style="fill:#34973f;fill-rule:nonzero;"/>
    <path d="M133.928,13.738L133.928,18.316L135.921,17.171L137.91,16.027L135.921,14.882L133.928,13.738Z" style="fill:#57ad32;fill-rule:nonzero;"/>
    <path d="M133.928,18.316L133.928,13.738L131.939,14.882L129.946,16.027L131.939,17.171L133.928,18.316Z" style="fill:#41a837;fill-rule:nonzero;"/>
    <path d="M133.928,22.897L133.928,18.316L131.939,19.46L129.946,20.605L131.939,21.749L133.928,22.897Z" style="fill:#2c9042;fill-rule:nonzero;"/>
    <path d="M133.928,27.475L133.928,22.897L131.939,24.041L129.946,25.186L131.939,26.331L133.928,27.475Z" style="fill:#0c7b4c;fill-rule:nonzero;"/>
    <path d="M133.928,32.053L133.928,27.475L131.939,28.62L129.946,29.764L131.939,30.909L133.928,32.053Z" style="fill:#096b4e;fill-rule:nonzero;"/>
    <path d="M137.91,25.186L137.91,29.764L139.902,28.62L141.892,27.475L139.902,26.331L137.91,25.186Z" style="fill:#1c824b;fill-rule:nonzero;"/>
    <path d="M137.91,20.605L137.91,25.186L139.902,24.041L141.892,22.897L139.902,21.749L137.91,20.605Z" style="fill:#34973f;fill-rule:nonzero;"/>
    <path d="M137.91,16.027L137.91,20.605L139.902,19.46L141.892,18.316L139.902,17.171L137.91,16.027Z" style="fill:#57ad32;fill-rule:nonzero;"/>
    <path d="M137.91,20.605L137.91,16.027L135.921,17.171L133.928,18.316L135.921,19.46L137.91,20.605Z" style="fill:#41a837;fill-rule:nonzero;"/>
    <path d="M137.91,25.186L137.91,20.605L135.921,21.749L133.928,22.897L135.921,24.041L137.91,25.186Z" style="fill:#2c9042;fill-rule:nonzero;"/>
    <path d="M137.91,29.764L137.91,25.186L135.921,26.331L133.928,27.475L135.921,28.62L137.91,29.764Z" style="fill:#157f4d;fill-rule:nonzero;"/>
    <path d="M141.892,22.897L141.892,27.475L143.884,26.331L145.873,25.186L143.884,24.041L141.892,22.897Z" style="fill:#34973f;fill-rule:nonzero;"/>
    <path d="M141.892,18.316L141.892,22.897L143.884,21.749L145.873,20.605L143.884,19.46L141.892,18.316Z" style="fill:#47ab36;fill-rule:nonzero;"/>
    <path d="M141.892,22.897L141.892,18.316L139.902,19.46L137.91,20.605L139.902,21.749L141.892,22.897Z" style="fill:#41a837;fill-rule:nonzero;"/>
    <path d="M141.892,27.475L141.892,22.897L139.902,24.041L137.91,25.186L139.902,26.331L141.892,27.475Z" style="fill:#2c9042;fill-rule:nonzero;"/>
    <path d="M145.873,20.605L145.873,25.186L147.866,24.041L149.855,22.897L147.866,21.749L145.873,20.605Z" style="fill:#3f9d36;fill-rule:nonzero;"/>
    <path d="M145.873,25.186L145.873,20.605L143.884,21.749L141.892,22.897L143.884,24.041L145.873,25.186Z" style="fill:#42a436;fill-rule:nonzero;"/>
    <path d="M149.855,0L149.855,22.897L139.902,17.171L129.946,11.448L139.902,5.723L149.855,0Z" style="fill:url(#_Linear3);fill-rule:nonzero;"/>
    <path d="M149.855,18.316L149.855,22.897L147.866,21.749L145.873,20.605L147.866,19.46L149.855,18.316Z" style="fill:#7cb83f;fill-rule:nonzero;"/>
    <path d="M149.855,13.738L149.855,18.316L147.866,17.171L145.873,16.027L147.866,14.882L149.855,13.738Z" style="fill:#7bb83b;fill-rule:nonzero;"/>
    <path d="M149.855,9.159L149.855,13.738L147.866,12.593L145.873,11.448L147.866,10.304L149.855,9.159Z" style="fill:#7bb838;fill-rule:nonzero;"/>
    <path d="M149.855,4.578L149.855,9.159L147.866,8.015L145.873,6.87L147.866,5.723L149.855,4.578Z" style="fill:#7db830;fill-rule:nonzero;"/>
    <path d="M149.855,0L149.855,4.578L147.866,3.434L145.873,2.289L147.866,1.145L149.855,0Z" style="fill:#7fb92e;fill-rule:nonzero;"/>
    <path d="M145.873,16.027L145.873,20.605L143.884,19.46L141.892,18.316L143.884,17.171L145.873,16.027Z" style="fill:#92be30;fill-rule:nonzero;"/>
    <path d="M145.873,11.448L145.873,16.027L143.884,14.882L141.892,13.738L143.884,12.593L145.873,11.448Z" style="fill:#96be31;fill-rule:nonzero;"/>
    <path d="M145.873,6.87L145.873,11.448L143.884,10.304L141.892,9.159L143.884,8.015L145.873,6.87Z" style="fill:#92be30;fill-rule:nonzero;"/>
    <path d="M145.873,2.289L145.873,6.87L143.884,5.723L141.892,4.578L143.884,3.434L145.873,2.289Z" style="fill:#a0c22d;fill-rule:nonzero;"/>
    <path d="M145.873,6.87L145.873,2.289L147.866,3.434L149.855,4.578L147.866,5.723L145.873,6.87Z" style="fill:#8bbd37;fill-rule:nonzero;"/>
    <path d="M145.873,11.448L145.873,6.87L147.866,8.015L149.855,9.159L147.866,10.304L145.873,11.448Z" style="fill:#8cbc31;fill-rule:nonzero;"/>
    <path d="M145.873,16.027L145.873,11.448L147.866,12.593L149.855,13.738L147.866,14.882L145.873,16.027Z" style="fill:#87ba31;fill-rule:nonzero;"/>
    <path d="M145.873,20.605L145.873,16.027L147.866,17.171L149.855,18.316L147.866,19.46L145.873,20.605Z" style="fill:#8abc3d;fill-rule:nonzero;"/>
    <path d="M141.892,13.738L141.892,18.316L139.902,17.171L137.91,16.027L139.902,14.882L141.892,13.738Z" style="fill:#b1c837;fill-rule:nonzero;"/>
    <path d="M141.892,9.159L141.892,13.738L139.902,12.593L137.91,11.448L139.902,10.304L141.892,9.159Z" style="fill:#bccb35;fill-rule:nonzero;"/>
    <path d="M141.892,4.578L141.892,9.159L139.902,8.015L137.91,6.87L139.902,5.723L141.892,4.578Z" style="fill:#b3c937;fill-rule:nonzero;"/>
    <path d="M141.892,9.159L141.892,4.578L143.884,5.723L145.873,6.87L143.884,8.015L141.892,9.159Z" style="fill:#a0c335;fill-rule:nonzero;"/>
    <path d="M141.892,13.738L141.892,9.159L143.884,10.304L145.873,11.448L143.884,12.593L141.892,13.738Z" style="fill:#a5c335;fill-rule:nonzero;"/>
    <path d="M141.892,18.316L141.892,13.738L143.884,14.882L145.873,16.027L143.884,17.171L141.892,18.316Z" style="fill:#a7c435;fill-rule:nonzero;"/>
    <path d="M137.91,11.448L137.91,16.027L135.921,14.882L133.928,13.738L135.921,12.593L137.91,11.448Z" style="fill:#d5d230;fill-rule:nonzero;"/>
    <path d="M137.91,6.87L137.91,11.448L135.921,10.304L133.928,9.159L135.921,8.015L137.91,6.87Z" style="fill:#d6d230;fill-rule:nonzero;"/>
    <path d="M137.91,11.448L137.91,6.87L139.902,8.015L141.892,9.159L139.902,10.304L137.91,11.448Z" style="fill:#c7cf36;fill-rule:nonzero;"/>
    <path d="M137.91,16.027L137.91,11.448L139.902,12.593L141.892,13.738L139.902,14.882L137.91,16.027Z" style="fill:#ccd13a;fill-rule:nonzero;"/>
    <path d="M133.928,9.159L133.928,13.738L131.939,12.593L129.946,11.448L131.939,10.304L133.928,9.159Z" style="fill:#f2e141;fill-rule:nonzero;"/>
    <path d="M133.928,13.738L133.928,9.159L135.921,10.304L137.91,11.448L135.921,12.593L133.928,13.738Z" style="fill:#dad53b;fill-rule:nonzero;"/>
    <defs>
        <linearGradient id="_Linear1" x1="0" y1="0" x2="1" y2="0" gradientUnits="userSpaceOnUse" gradientTransform="matrix(-8.40797,-18.5915,18.5915,-8.40797,146.479,43.1653)"><stop offset="0" style="stop-color:#00a9a6;stop-opacity:1"/><stop offset="1" style="stop-color:#47ab35;stop-opacity:1"/></linearGradient>
        <linearGradient id="_Linear2" x1="0" y1="0" x2="1" y2="0" gradientUnits="userSpaceOnUse" gradientTransform="matrix(5.92571,-11.6667,11.6667,5.92571,133.582,29.6133)"><stop offset="0" style="stop-color:#005a4d;stop-opacity:1"/><stop offset="0.26" style="stop-color:#1b7944;stop-opacity:1"/><stop offset="0.55" style="stop-color:#33953c;stop-opacity:1"/><stop offset="0.81" style="stop-color:#42a537;stop-opacity:1"/><stop offset="1" style="stop-color:#47ab35;stop-opacity:1"/></linearGradient>
        <linearGradient id="_Linear3" x1="0" y1="0" x2="1" y2="0" gradientUnits="userSpaceOnUse" gradientTransform="matrix(19.909,0,0,19.909,129.946,11.4485)"><stop offset="0" style="stop-color:#fae242;stop-opacity:1"/><stop offset="0.14" style="stop-color:#f1df40;stop-opacity:1"/><stop offset="0.36" style="stop-color:#d9d73c;stop-opacity:1"/><stop offset="0.65" style="stop-color:#b2ca35;stop-opacity:1"/><stop offset="0.97" style="stop-color:#7db82c;stop-opacity:1"/><stop offset="1" style="stop-color:#78b62b;stop-opacity:1"/></linearGradient>
    </defs>
</svg>
