<?xml version="1.0" encoding="UTF-8" standalone="no"?>
<!DOCTYPE svg PUBLIC "-//W3C//DTD SVG 1.1//EN" "http://www.w3.org/Graphics/SVG/1.1/DTD/svg11.dtd">
<svg width="100%" height="100%" viewBox="0 0 44 44" version="1.1" xmlns="http://www.w3.org/2000/svg" xmlns:xlink="http://www.w3.org/1999/xlink" xml:space="preserve" xmlns:serif="http://www.serif.com/" style="fill-rule:evenodd;clip-rule:evenodd;stroke-linejoin:round;stroke-miterlimit:2;">
    <path d="M22,0C9.852,0 0,9.852 0,22C0,34.148 9.852,44 22,44C34.148,44 44,34.148 44,22C44,9.852 34.148,0 22,0ZM32.045,17.153C32.055,17.37 32.059,17.587 32.059,17.806C32.059,24.478 26.98,32.173 17.692,32.173L17.692,32.173L17.692,32.173C14.84,32.173 12.187,31.337 9.952,29.905C10.347,29.952 10.749,29.975 11.156,29.975C13.522,29.975 15.7,29.168 17.428,27.813C15.218,27.772 13.354,26.312 12.711,24.306C13.019,24.365 13.335,24.397 13.66,24.397C14.121,24.397 14.567,24.335 14.991,24.219C12.681,23.757 10.94,21.715 10.94,19.269C10.94,19.247 10.94,19.226 10.941,19.205C11.621,19.583 12.4,19.811 13.228,19.836C11.872,18.932 10.981,17.385 10.981,15.633C10.981,14.708 11.231,13.841 11.665,13.095C14.155,16.151 17.876,18.16 22.073,18.371C21.987,18.001 21.942,17.616 21.942,17.22C21.942,14.432 24.203,12.171 26.992,12.171C28.445,12.171 29.757,12.785 30.678,13.766C31.828,13.539 32.909,13.119 33.885,12.54C33.507,13.719 32.707,14.708 31.664,15.333C32.685,15.211 33.659,14.94 34.564,14.538C33.888,15.551 33.031,16.441 32.045,17.153Z" style="fill:#565a5c;fill-rule:nonzero;"/>
</svg>
