<?xml version="1.0" encoding="UTF-8" standalone="no"?>
<!DOCTYPE svg PUBLIC "-//W3C//DTD SVG 1.1//EN" "http://www.w3.org/Graphics/SVG/1.1/DTD/svg11.dtd">
<svg width="44" height="44" viewBox="0 0 44 44" version="1.1" xmlns="http://www.w3.org/2000/svg" xmlns:xlink="http://www.w3.org/1999/xlink" xml:space="preserve" xmlns:serif="http://www.serif.com/" style="fill-rule:evenodd;clip-rule:evenodd;stroke-linejoin:round;stroke-miterlimit:2;">
    <path d="M22,0C9.852,0 0,9.852 0,22C0,34.148 9.852,44 22,44C34.148,44 44,34.148 44,22C44,9.852 34.148,0 22,0ZM6.28,18.408L6.888,22.824L6.936,22.824L7.672,18.408L10.392,18.408L11.176,22.824L11.208,22.824L11.8,18.408L15.096,18.408L13.096,27L9.896,27L8.968,23.064L8.936,23.064L8.024,27L4.92,27L2.936,18.408L6.28,18.408ZM19.712,18.408L20.32,22.824L20.368,22.824L21.104,18.408L23.824,18.408L24.608,22.824L24.64,22.824L25.232,18.408L28.528,18.408L26.528,27L23.328,27L22.4,23.064L22.368,23.064L21.456,27L18.352,27L16.368,18.408L19.712,18.408ZM33.144,18.408L33.752,22.824L33.8,22.824L34.536,18.408L37.256,18.408L38.04,22.824L38.072,22.824L38.664,18.408L41.96,18.408L39.96,27L36.76,27L35.832,23.064L35.8,23.064L34.888,27L31.784,27L29.8,18.408L33.144,18.408Z" style="fill:#565a5c;"/>
</svg>
